<svg xmlns="http://www.w3.org/2000/svg" viewBox="0 0 24 24">
    <path d="M 17.375 6.84375 C 14.246 6.84375 13.90625 9.462 13.90625 10.125 L 15.90625 10.125 C 15.90625 8.476 17.11175 8.4375 17.34375 8.4375 C 18.48875 8.4375 18.625 9.433 18.625 9.875 C 18.625 11.208 16.849 12.48775 14.125 15.59375 L 14.125 16.9375 L 20.9375 16.9375 L 20.9375 15.34375 L 16.65625 15.34375 C 19.17425 12.69275 20.625 11.4675 20.625 9.6875 C 20.625 9.2505 20.606 6.84375 17.375 6.84375 z M 3 7 L 3 17 L 5.28125 17 L 5.28125 12.71875 L 9.71875 12.71875 L 9.71875 17 L 12 17 L 12 7 L 9.71875 7 L 9.71875 11.0625 L 5.28125 11.0625 L 5.28125 7 L 3 7 z"/>
</svg>
