<svg xmlns="http://www.w3.org/2000/svg" viewBox="0 0 24 24">
    <path d="M 17.125 7.8125 C 14.756 7.8125 14.4375 9.55425 14.4375 10.03125 L 16.0625 10.03125 C 16.0625 9.89025 16.15725 9.125 17.15625 9.125 C 18.24825 9.125 18.25 10.00725 18.25 10.15625 C 18.25 11.16725 17.4725 11.28125 17.0625 11.28125 L 16.1875 11.28125 L 16.1875 12.5625 L 17.0625 12.5625 C 17.2675 12.5625 18.375 12.51625 18.375 13.78125 C 18.375 13.94925 18.32625 14.875 17.15625 14.875 C 16.03325 14.875 15.96875 13.99675 15.96875 13.84375 L 14.34375 13.84375 C 14.34375 14.44275 14.725 16.1875 17.125 16.1875 C 17.777 16.1875 20 15.93225 20 13.78125 C 20 12.47825 19.084 12.039 18.625 11.875 C 18.822 11.785 19.875 11.267 19.875 10.125 C 19.875 9.744 19.759 7.8125 17.125 7.8125 z M 4 8 L 4 16 L 5.78125 16 L 5.78125 12.5625 L 9.21875 12.5625 L 9.21875 16 L 11 16 L 11 8 L 9.21875 8 L 9.21875 11.25 L 5.78125 11.25 L 5.78125 8 L 4 8 z"/>
</svg>
