<svg xmlns="http://www.w3.org/2000/svg" viewBox="0 0 14.17 14.17">
    <g id="vk">
        <rect fill="#FFFFFF" width="14.17" height="14.17" rx="3"/>
        <path id="vk-2" data-name="vk" fill="#573ea4" d="M12.52,4.3h-2.4S9.27,6.48,8.27,7c-.71-.47.17-2.1-.35-2.68-.36-.4-2.58-.29-2.66.22.25.08.48.15.58.36C6.08,5.41,6,7,5.62,7S5.15,6.66,5,6.46a7.18,7.18,0,0,1-.48-.7c-.18-.31-.83-1.51-.83-1.51H1.65A27.42,27.42,0,0,0,2.86,6.91C3.89,8.64,5.05,10.43,8,10c.18-.5,0-1.22.54-1.25.29,0,.51.32.67.51a3.86,3.86,0,0,0,.5.55,2,2,0,0,0,1.5.29c.6,0,1.22.13,1.31-.29S12,8.9,11.75,8.64s-.93-.72-1-1.12.73-1.2,1-1.51A7.28,7.28,0,0,0,12.52,4.3Z"/>
    </g>
</svg>